<?xml version="1.0" standalone="no"?>
<!DOCTYPE svg PUBLIC "-//W3C//DTD SVG 20010904//EN"
 "http://www.w3.org/TR/2001/REC-SVG-20010904/DTD/svg10.dtd">
<svg version="1.0" xmlns="http://www.w3.org/2000/svg"
 width="411.000000pt" height="172.000000pt" viewBox="0 0 411.000000 172.000000"
 preserveAspectRatio="xMidYMid meet">

<g transform="translate(0.000000,172.000000) scale(0.100000,-0.100000)"
fill="#000000" stroke="none">
<path d="M850 1715 c0 -3 16 -26 36 -52 34 -45 79 -118 114 -188 19 -37 15
-35 315 -156 168 -67 257 -98 272 -94 36 9 29 52 -18 121 -134 194 -346 327
-579 364 -69 10 -140 13 -140 5z"/>
<path d="M1075 1271 c11 -43 26 -143 38 -249 2 -21 34 -37 282 -137 325 -132
318 -131 323 -24 4 86 -15 197 -36 208 -13 7 -540 222 -607 247 -11 5 -11 -3
0 -45z"/>
<path d="M1924 1083 c-41 -29 -47 -137 -11 -179 19 -22 29 -26 50 -20 25 6 27
10 27 61 0 52 -1 55 -25 55 -18 0 -25 -5 -25 -20 0 -11 5 -20 10 -20 6 0 10
-9 10 -20 0 -23 -10 -26 -28 -8 -13 13 -16 75 -6 102 7 19 35 21 53 4 10 -11
12 -7 9 17 -2 24 -8 31 -28 33 -14 1 -30 -1 -36 -5z"/>
<path d="M2037 1083 c-4 -3 -7 -48 -7 -100 l0 -93 46 0 c38 0 45 3 42 18 -2
10 -14 18 -31 20 -27 3 -27 4 -27 83 0 73 -6 90 -23 72z"/>
<path d="M2167 1073 c-22 -26 -30 -67 -22 -118 12 -84 80 -96 105 -19 31 92
-31 194 -83 137z m55 -48 c14 -32 0 -100 -22 -100 -21 0 -34 45 -26 88 8 43
31 49 48 12z"/>
<path d="M2297 1083 c-4 -3 -7 -48 -7 -100 l0 -93 40 0 c29 0 42 5 50 19 13
24 13 68 1 76 -5 3 -7 21 -4 40 3 21 1 41 -7 50 -13 15 -61 21 -73 8z m53 -53
c0 -11 -7 -20 -15 -20 -8 0 -15 9 -15 20 0 11 7 20 15 20 8 0 15 -9 15 -20z
m8 -82 c-2 -13 -10 -23 -18 -23 -8 0 -16 10 -18 23 -3 17 2 22 18 22 16 0 21
-5 18 -22z"/>
<path d="M2455 1078 c-7 -26 -35 -161 -35 -174 0 -8 7 -14 15 -14 8 0 15 9 15
20 0 14 7 20 21 20 12 0 23 -8 26 -20 8 -29 37 -26 30 3 -3 12 -13 57 -22 100
-12 52 -22 77 -31 77 -8 0 -16 -6 -19 -12z m21 -116 c-12 -12 -18 8 -10 35 l8
28 4 -28 c2 -16 1 -31 -2 -35z"/>
<path d="M2560 990 l0 -100 40 0 c33 0 40 3 40 20 0 15 -7 20 -25 20 -25 0
-25 1 -25 80 0 64 -3 80 -15 80 -12 0 -15 -18 -15 -100z"/>
<path d="M2753 990 c-16 -78 -17 -100 -7 -100 7 0 16 9 19 20 3 11 15 20 25
20 9 0 20 -9 23 -20 3 -11 12 -20 20 -20 12 0 11 15 -6 100 -16 80 -23 100
-37 100 -14 0 -21 -20 -37 -100z m47 -5 c0 -14 -4 -25 -10 -25 -5 0 -10 11
-10 25 0 14 5 25 10 25 6 0 10 -11 10 -25z"/>
<path d="M2897 1073 c-38 -42 -29 -160 14 -183 25 -14 59 4 59 30 0 18 -3 19
-20 8 -28 -18 -45 3 -45 57 0 55 17 75 46 57 19 -12 20 -11 17 15 -4 35 -45
44 -71 16z"/>
<path d="M3026 1074 c-35 -35 -34 -141 2 -177 18 -18 25 -19 47 -9 15 7 25 20
25 32 0 23 -10 26 -29 8 -18 -19 -41 16 -41 63 0 46 23 68 51 51 17 -11 19 -9
19 12 0 36 -46 49 -74 20z"/>
<path d="M3137 1083 c-4 -3 -7 -48 -7 -100 l0 -93 40 0 c33 0 40 3 40 20 0 15
-7 20 -26 20 -21 0 -25 4 -22 23 2 14 11 23 26 25 29 4 29 30 0 34 -34 5 -37
38 -4 38 19 0 26 5 26 20 0 16 -7 20 -33 20 -19 0 -37 -3 -40 -7z"/>
<path d="M3266 1075 c-9 -9 -16 -32 -16 -51 0 -28 6 -38 30 -52 16 -9 30 -25
30 -34 0 -20 -13 -23 -41 -8 -16 9 -19 7 -19 -14 0 -17 7 -26 26 -30 40 -10
66 18 62 68 -2 33 -8 43 -30 54 -16 7 -28 20 -28 28 0 17 31 19 49 2 10 -11
12 -7 9 17 -2 24 -8 31 -29 33 -15 2 -34 -4 -43 -13z"/>
<path d="M3390 1075 c-8 -9 -14 -33 -14 -52 0 -34 5 -41 51 -69 15 -10 16 -14
5 -25 -10 -11 -16 -11 -32 -1 -26 16 -30 15 -30 -8 0 -18 26 -40 49 -40 21 0
51 41 51 69 0 22 -9 37 -35 57 -38 29 -37 49 2 41 20 -4 24 -1 21 17 -4 27
-49 34 -68 11z"/>
<path d="M1100 817 c-6 -45 -17 -106 -25 -135 -13 -52 -13 -52 13 -66 71 -36
471 -196 491 -196 18 0 29 15 61 83 21 45 41 99 45 119 6 33 4 38 -22 51 -24
12 -351 147 -504 208 l-47 18 -12 -82z"/>
<path d="M1895 730 l0 -100 28 0 c17 0 27 5 27 15 0 8 -4 15 -10 15 -6 0 -10
28 -10 65 0 37 4 65 10 65 6 0 10 9 10 20 0 15 -7 20 -27 20 l-28 0 0 -100z"/>
<path d="M1990 730 c0 -60 4 -100 10 -100 6 0 10 26 11 58 l1 57 12 -35 c7
-19 17 -35 21 -35 5 0 13 16 19 35 11 35 11 35 14 -22 5 -97 22 -65 22 42 0
80 -3 100 -14 100 -9 0 -20 -19 -28 -47 l-14 -48 -12 48 c-8 29 -18 47 -27 47
-12 0 -15 -18 -15 -100z"/>
<path d="M2147 823 c-4 -3 -7 -48 -7 -100 0 -76 3 -93 15 -93 11 0 15 14 16
58 1 57 1 57 11 20 12 -47 24 -48 37 -5 9 30 9 29 10 -20 1 -40 5 -53 16 -53
12 0 15 18 15 100 0 80 -3 100 -14 100 -9 0 -21 -19 -29 -47 l-14 -48 -13 48
c-11 43 -26 57 -43 40z"/>
<path d="M2300 810 c0 -11 5 -20 10 -20 6 0 10 -26 10 -59 0 -33 -4 -63 -10
-66 -22 -14 -10 -35 20 -35 30 0 42 21 20 35 -5 3 -10 33 -10 66 0 33 4 59 10
59 6 0 10 9 10 20 0 16 -7 20 -30 20 -23 0 -30 -4 -30 -20z"/>
<path d="M2416 811 c-40 -44 -27 -162 19 -183 41 -18 65 4 65 62 0 47 -2 50
-25 50 -18 0 -25 -5 -25 -20 0 -11 5 -20 10 -20 6 0 10 -9 10 -20 0 -26 -26
-26 -40 -1 -32 62 15 142 58 99 9 -9 12 -8 12 8 0 44 -53 59 -84 25z"/>
<path d="M2537 823 c-4 -3 -7 -48 -7 -100 0 -76 3 -93 15 -93 10 0 15 11 15
35 0 19 4 35 9 35 5 0 15 -16 22 -35 8 -22 20 -35 31 -35 17 0 17 2 3 37 -12
29 -13 43 -4 70 11 34 4 73 -15 85 -14 10 -60 10 -69 1z m58 -58 c0 -11 -8
-21 -17 -23 -14 -3 -18 3 -18 23 0 20 4 26 18 23 9 -2 17 -12 17 -23z"/>
<path d="M2695 818 c-7 -20 -35 -158 -35 -174 0 -8 7 -14 15 -14 8 0 15 9 15
20 0 14 7 20 21 20 12 0 23 -8 26 -20 3 -11 12 -20 19 -20 16 0 17 4 5 50 -5
19 -15 61 -21 93 -8 38 -16 57 -26 57 -8 0 -17 -6 -19 -12z m21 -116 c-12 -12
-18 8 -10 35 l8 28 4 -28 c2 -16 1 -31 -2 -35z"/>
<path d="M2790 810 c0 -11 7 -20 15 -20 12 0 15 -16 15 -80 0 -64 3 -80 15
-80 12 0 15 16 15 80 0 73 2 80 20 80 13 0 20 7 20 20 0 17 -7 20 -50 20 -43
0 -50 -3 -50 -20z"/>
<path d="M2910 810 c0 -11 5 -20 10 -20 6 0 10 -28 10 -65 0 -37 -4 -65 -10
-65 -5 0 -10 -7 -10 -15 0 -10 11 -15 35 -15 24 0 35 5 35 15 0 8 -4 15 -10
15 -14 0 -13 123 1 137 17 17 1 33 -32 33 -22 0 -29 -5 -29 -20z"/>
<path d="M3024 805 c-20 -30 -23 -120 -5 -152 17 -33 50 -39 74 -15 28 29 35
117 13 160 -21 40 -58 43 -82 7z m60 -31 c19 -48 -8 -133 -34 -108 -12 12 -16
96 -5 114 9 15 32 12 39 -6z"/>
<path d="M3150 730 c0 -82 3 -100 15 -100 12 0 15 14 16 63 l0 62 22 -60 c14
-38 28 -61 40 -63 16 -3 17 5 15 94 -2 64 -7 99 -15 101 -8 3 -13 -13 -15 -49
l-3 -53 -18 53 c-14 38 -24 52 -38 52 -17 0 -19 -8 -19 -100z"/>
<path d="M3385 808 c-8 -34 -35 -169 -35 -174 0 -14 29 0 33 16 3 12 14 20 26
20 14 0 21 -6 21 -20 0 -11 7 -20 15 -20 18 0 18 4 -3 110 -13 62 -22 86 -35
88 -10 2 -18 -5 -22 -20z m29 -99 c-11 -18 -21 1 -16 28 5 27 5 27 14 4 4 -13
5 -27 2 -32z"/>
<path d="M3506 808 c-25 -35 -22 -138 4 -166 23 -25 33 -27 61 -12 15 8 19 22
19 60 0 47 -2 50 -25 50 -18 0 -25 -5 -25 -20 0 -11 5 -20 10 -20 6 0 10 -9
10 -20 0 -11 -4 -20 -8 -20 -20 0 -32 28 -32 72 0 54 18 70 51 49 17 -10 19
-8 19 13 0 41 -59 50 -84 14z"/>
<path d="M3630 730 l0 -100 40 0 c33 0 40 3 40 20 0 15 -7 20 -25 20 -20 0
-25 5 -25 25 0 20 5 25 25 25 16 0 25 6 25 15 0 9 -9 15 -25 15 -18 0 -25 5
-25 20 0 15 7 20 25 20 18 0 25 5 25 20 0 17 -7 20 -40 20 l-40 0 0 -100z"/>
<path d="M3750 730 c0 -110 17 -139 22 -37 l3 62 21 -60 c13 -37 27 -61 37
-63 15 -3 17 9 17 97 0 83 -3 101 -15 101 -11 0 -15 -13 -16 -52 l0 -53 -20
53 c-33 85 -49 70 -49 -48z"/>
<path d="M3913 822 c-29 -18 -42 -106 -23 -156 19 -51 90 -55 90 -5 0 17 -3
18 -22 8 -18 -10 -24 -8 -35 7 -17 24 -17 75 1 100 13 16 18 17 35 6 19 -11
21 -10 21 12 0 31 -37 47 -67 28z"/>
<path d="M4000 827 c0 -2 9 -30 20 -62 11 -32 20 -75 20 -97 0 -27 4 -38 15
-38 11 0 15 11 15 38 0 22 9 65 20 97 11 32 18 60 15 63 -11 12 -33 -10 -40
-40 l-7 -33 -15 38 c-9 20 -22 37 -29 37 -8 0 -14 -2 -14 -3z"/>
<path d="M970 404 c-34 -69 -60 -127 -59 -128 16 -12 369 -146 385 -146 38 0
214 146 214 178 0 25 -46 50 -243 132 -120 49 -222 90 -226 90 -4 0 -36 -57
-71 -126z"/>
<path d="M840 191 c0 -5 -34 -45 -75 -89 -42 -44 -71 -83 -66 -86 5 -4 52 -9
103 -13 118 -7 263 12 289 38 39 39 21 54 -126 113 -126 50 -125 50 -125 37z"/>
</g>
</svg>
